<svg xmlns="http://www.w3.org/2000/svg" viewBox="0 0 64 64">
  <rect width="64" height="64" rx="14" fill="#4A90D9"/>
  <!-- Dove body -->
  <path d="M32 44 C24 44 16 38 16 30 C16 24 20 20 26 20 C26 20 24 16 28 14 C32 12 36 14 38 18 C42 18 48 22 48 28 C48 36 40 44 32 44Z" fill="white"/>
  <!-- Wing -->
  <path d="M26 28 C22 26 18 28 16 30 C20 29 24 30 26 28Z" fill="#d0e8f8"/>
  <!-- Tail -->
  <path d="M32 44 C30 48 26 50 24 50 C28 48 30 46 32 44Z" fill="white"/>
  <path d="M32 44 C34 48 38 50 40 50 C36 48 34 46 32 44Z" fill="white"/>
  <!-- Eye -->
  <circle cx="36" cy="22" r="1.5" fill="#4A90D9"/>
  <!-- Olive branch -->
  <path d="M28 40 C26 42 24 44 22 44" stroke="#5a9e3a" stroke-width="1.5" fill="none" stroke-linecap="round"/>
  <ellipse cx="25" cy="41" rx="2.5" ry="1.5" fill="#6abf45" transform="rotate(-30 25 41)"/>
  <ellipse cx="23" cy="43" rx="2" ry="1.2" fill="#6abf45" transform="rotate(-20 23 43)"/>
</svg>